<mxfile host="65bd71144e" modified="2021-02-24T00:19:46.201Z" agent="5.0 (Windows NT 10.0; Win64; x64) AppleWebKit/537.36 (KHTML, like Gecko) Code/1.53.2 Chrome/87.0.4280.141 Electron/11.2.1 Safari/537.36" etag="xDVrvl3mJiIUToHiD8d7" version="14.2.4" type="embed">
    <diagram id="Sl-4h8R7skGaaIEDYwcu" name="基本レイアウト">
        <mxGraphModel dx="5260" dy="2200" grid="1" gridSize="10" guides="1" tooltips="1" connect="1" arrows="1" fold="1" page="1" pageScale="1" pageWidth="827" pageHeight="1169" background="#ffffff" math="0" shadow="0">
            <root>
                <mxCell id="0"/>
                <mxCell id="1" parent="0"/>
                <mxCell id="2" value="" style="rounded=0;whiteSpace=wrap;html=1;" parent="1" vertex="1">
                    <mxGeometry x="30" y="120" width="690" height="340" as="geometry"/>
                </mxCell>
                <mxCell id="3" value="ヘッダー" style="rounded=0;whiteSpace=wrap;html=1;fillColor=#60a917;strokeColor=#2D7600;fontColor=#ffffff;" parent="1" vertex="1">
                    <mxGeometry x="40" y="130" width="670" height="30" as="geometry"/>
                </mxCell>
                <mxCell id="4" value="" style="rounded=0;whiteSpace=wrap;html=1;" parent="1" vertex="1">
                    <mxGeometry x="40" y="170" width="150" height="280" as="geometry"/>
                </mxCell>
                <mxCell id="5" value="ログインユーザ情報" style="rounded=0;whiteSpace=wrap;html=1;" parent="1" vertex="1">
                    <mxGeometry x="50" y="180" width="130" height="40" as="geometry"/>
                </mxCell>
                <mxCell id="6" value="基本メニュー" style="rounded=0;whiteSpace=wrap;html=1;" parent="1" vertex="1">
                    <mxGeometry x="50" y="230" width="130" height="60" as="geometry"/>
                </mxCell>
                <mxCell id="7" value="個人のフォルダ" style="rounded=0;whiteSpace=wrap;html=1;" parent="1" vertex="1">
                    <mxGeometry x="50" y="300" width="130" height="130" as="geometry"/>
                </mxCell>
                <mxCell id="8" value="" style="rounded=0;whiteSpace=wrap;html=1;" parent="1" vertex="1">
                    <mxGeometry x="200" y="170" width="510" height="280" as="geometry"/>
                </mxCell>
                <mxCell id="13" value="タスクの詳細" style="rounded=0;whiteSpace=wrap;html=1;align=center;" parent="1" vertex="1">
                    <mxGeometry x="590" y="180" width="110" height="260" as="geometry"/>
                </mxCell>
                <mxCell id="14" value="&lt;h1&gt;基本画面レイアウト&lt;/h1&gt;&lt;p&gt;&lt;br&gt;&lt;/p&gt;" style="text;html=1;strokeColor=#314354;fillColor=#647687;spacing=5;spacingTop=-20;whiteSpace=wrap;overflow=hidden;rounded=0;fontColor=#ffffff;" parent="1" vertex="1">
                    <mxGeometry x="20" y="10" width="550" height="70" as="geometry"/>
                </mxCell>
                <mxCell id="v78YcPh7-A_lJaqGq7Ih-14" value="タスクの一覧" style="rounded=0;whiteSpace=wrap;html=1;align=center;" parent="1" vertex="1">
                    <mxGeometry x="210" y="180" width="360" height="260" as="geometry"/>
                </mxCell>
                <mxCell id="45xTW--RH3_ecJDIS-M5-42" value="&lt;h1&gt;コンポーネント&lt;/h1&gt;&lt;p&gt;&lt;br&gt;&lt;/p&gt;" style="text;html=1;strokeColor=#314354;fillColor=#647687;spacing=5;spacingTop=-20;whiteSpace=wrap;overflow=hidden;rounded=0;fontColor=#ffffff;" vertex="1" parent="1">
                    <mxGeometry x="850" y="10" width="440" height="70" as="geometry"/>
                </mxCell>
                <mxCell id="45xTW--RH3_ecJDIS-M5-43" value="ログインユーザ情報" style="rounded=0;whiteSpace=wrap;html=1;" vertex="1" parent="1">
                    <mxGeometry x="890" y="230" width="130" height="40" as="geometry"/>
                </mxCell>
                <mxCell id="45xTW--RH3_ecJDIS-M5-44" value="" style="line;strokeWidth=2;direction=south;html=1;" vertex="1" parent="1">
                    <mxGeometry x="1080" y="130" width="10" height="2170" as="geometry"/>
                </mxCell>
                <mxCell id="45xTW--RH3_ecJDIS-M5-45" value="" style="rounded=0;whiteSpace=wrap;html=1;" vertex="1" parent="1">
                    <mxGeometry x="1100" y="180" width="390" height="160" as="geometry"/>
                </mxCell>
                <mxCell id="45xTW--RH3_ecJDIS-M5-46" value="氏名" style="rounded=0;whiteSpace=wrap;html=1;" vertex="1" parent="1">
                    <mxGeometry x="1230" y="200" width="230" height="50" as="geometry"/>
                </mxCell>
                <mxCell id="45xTW--RH3_ecJDIS-M5-47" value="メールアドレス" style="rounded=0;whiteSpace=wrap;html=1;" vertex="1" parent="1">
                    <mxGeometry x="1230" y="260" width="230" height="50" as="geometry"/>
                </mxCell>
                <mxCell id="45xTW--RH3_ecJDIS-M5-48" value="アイコン" style="ellipse;whiteSpace=wrap;html=1;" vertex="1" parent="1">
                    <mxGeometry x="1120" y="220" width="90" height="80" as="geometry"/>
                </mxCell>
                <mxCell id="45xTW--RH3_ecJDIS-M5-49" value="基本メニュー" style="rounded=0;whiteSpace=wrap;html=1;" vertex="1" parent="1">
                    <mxGeometry x="890" y="450" width="130" height="60" as="geometry"/>
                </mxCell>
                <mxCell id="45xTW--RH3_ecJDIS-M5-50" value="" style="rounded=0;whiteSpace=wrap;html=1;" vertex="1" parent="1">
                    <mxGeometry x="1100" y="410" width="390" height="160" as="geometry"/>
                </mxCell>
                <mxCell id="45xTW--RH3_ecJDIS-M5-51" value="メニューパーツ" style="rounded=0;whiteSpace=wrap;html=1;" vertex="1" parent="1">
                    <mxGeometry x="890" y="620" width="130" height="60" as="geometry"/>
                </mxCell>
                <mxCell id="45xTW--RH3_ecJDIS-M5-52" value="　　　　　　アイテム名" style="rounded=0;whiteSpace=wrap;html=1;align=left;" vertex="1" parent="1">
                    <mxGeometry x="1120" y="630" width="350" height="40" as="geometry"/>
                </mxCell>
                <mxCell id="45xTW--RH3_ecJDIS-M5-53" value="アイ&lt;br&gt;コン" style="ellipse;whiteSpace=wrap;html=1;" vertex="1" parent="1">
                    <mxGeometry x="1140" y="630" width="40" height="40" as="geometry"/>
                </mxCell>
                <mxCell id="45xTW--RH3_ecJDIS-M5-54" value="メニューパーツ" style="rounded=0;whiteSpace=wrap;html=1;" vertex="1" parent="1">
                    <mxGeometry x="1120" y="430" width="310" height="30" as="geometry"/>
                </mxCell>
                <mxCell id="45xTW--RH3_ecJDIS-M5-55" value="メニューパーツ" style="rounded=0;whiteSpace=wrap;html=1;" vertex="1" parent="1">
                    <mxGeometry x="1120" y="480" width="310" height="30" as="geometry"/>
                </mxCell>
                <mxCell id="45xTW--RH3_ecJDIS-M5-56" value="メニューパーツ" style="rounded=0;whiteSpace=wrap;html=1;" vertex="1" parent="1">
                    <mxGeometry x="1120" y="530" width="310" height="30" as="geometry"/>
                </mxCell>
                <mxCell id="45xTW--RH3_ecJDIS-M5-57" value="個人のフォルダ" style="rounded=0;whiteSpace=wrap;html=1;" vertex="1" parent="1">
                    <mxGeometry x="890" y="840" width="130" height="130" as="geometry"/>
                </mxCell>
                <mxCell id="45xTW--RH3_ecJDIS-M5-58" value="" style="rounded=0;whiteSpace=wrap;html=1;" vertex="1" parent="1">
                    <mxGeometry x="1120" y="750" width="360" height="360" as="geometry"/>
                </mxCell>
                <mxCell id="45xTW--RH3_ecJDIS-M5-59" value="　＋　新しいフォルダ　　　　　　　　　　　　　" style="rounded=0;whiteSpace=wrap;html=1;align=left;" vertex="1" parent="1">
                    <mxGeometry x="1130" y="770" width="310" height="30" as="geometry"/>
                </mxCell>
                <mxCell id="45xTW--RH3_ecJDIS-M5-60" value="フォルダアイテム" style="rounded=0;whiteSpace=wrap;html=1;" vertex="1" parent="1">
                    <mxGeometry x="1130" y="820" width="310" height="30" as="geometry"/>
                </mxCell>
                <mxCell id="45xTW--RH3_ecJDIS-M5-61" value="フォルダアイテム" style="rounded=0;whiteSpace=wrap;html=1;" vertex="1" parent="1">
                    <mxGeometry x="1130" y="870" width="310" height="30" as="geometry"/>
                </mxCell>
                <mxCell id="45xTW--RH3_ecJDIS-M5-62" value="フォルダアイテム" style="rounded=0;whiteSpace=wrap;html=1;" vertex="1" parent="1">
                    <mxGeometry x="1130" y="915" width="310" height="30" as="geometry"/>
                </mxCell>
                <mxCell id="45xTW--RH3_ecJDIS-M5-63" value="タスクの一覧" style="rounded=0;whiteSpace=wrap;html=1;align=left;" vertex="1" parent="1">
                    <mxGeometry x="880" y="1255" width="150" height="30" as="geometry"/>
                </mxCell>
                <mxCell id="45xTW--RH3_ecJDIS-M5-64" value="" style="rounded=0;whiteSpace=wrap;html=1;" vertex="1" parent="1">
                    <mxGeometry x="1110" y="1250" width="370" height="260" as="geometry"/>
                </mxCell>
                <mxCell id="45xTW--RH3_ecJDIS-M5-65" value="　□　タスクアイテム" style="rounded=0;whiteSpace=wrap;html=1;align=left;" vertex="1" parent="1">
                    <mxGeometry x="1120" y="1260" width="350" height="30" as="geometry"/>
                </mxCell>
                <mxCell id="45xTW--RH3_ecJDIS-M5-66" value="　□　タスクアイテム" style="rounded=0;whiteSpace=wrap;html=1;align=left;" vertex="1" parent="1">
                    <mxGeometry x="1120" y="1300" width="350" height="30" as="geometry"/>
                </mxCell>
                <mxCell id="45xTW--RH3_ecJDIS-M5-67" value="　＋　タスクの追加 ...&amp;nbsp;" style="rounded=0;whiteSpace=wrap;html=1;align=left;" vertex="1" parent="1">
                    <mxGeometry x="1120" y="1470" width="350" height="30" as="geometry"/>
                </mxCell>
                <mxCell id="45xTW--RH3_ecJDIS-M5-68" value="　□　タスクアイテム" style="rounded=0;whiteSpace=wrap;html=1;align=left;" vertex="1" parent="1">
                    <mxGeometry x="885" y="1630" width="140" height="30" as="geometry"/>
                </mxCell>
                <mxCell id="45xTW--RH3_ecJDIS-M5-69" value="　□　タスクアイテム" style="rounded=0;whiteSpace=wrap;html=1;align=left;" vertex="1" parent="1">
                    <mxGeometry x="1110" y="1630" width="350" height="30" as="geometry"/>
                </mxCell>
            </root>
        </mxGraphModel>
    </diagram>
</mxfile>